<?xml version="1.0" encoding="utf-8"?>
<!-- Generator: Adobe Illustrator 25.0.0, SVG Export Plug-In . SVG Version: 6.00 Build 0)  -->
<svg version="1.0" id="Layer_1" xmlns="http://www.w3.org/2000/svg" xmlns:xlink="http://www.w3.org/1999/xlink" x="0px" y="0px"
	 viewBox="0 0 460 460" style="enable-background:new 0 0 460 460;" xml:space="preserve">
<style type="text/css">
	.st0{fill:#3D8361;}
</style>
<g id="XMLID_24_">
	<g>
		<g>
			<path class="st0" d="M195.2,180.6c0,11.7,6.2,16.6,16.7,21.2v-43.5C200.8,161.8,195.2,169.3,195.2,180.6z"/>
			<path class="st0" d="M248.9,258.2v44.8c14.5-2.6,21.8-9.8,21.8-21.6C270.7,268.9,261.7,263.5,248.9,258.2z"/>
			<path class="st0" d="M230,0C103,0,0,103,0,230s103,230,230,230s230-103,230-230S357,0,230,0z M248.9,341.7V369
				c0,4.5-3.6,8.1-8.1,8.1H220c-4.5,0-8.1-3.6-8.1-8.1v-28c-23.1-3.1-45.2-11.3-63.5-22.8c-3.6-2.2-4.8-6.8-2.9-10.6l11.1-21.7
				c1.1-2.1,2.9-3.6,5.2-4.1c2.2-0.6,4.6-0.2,6.5,1.1c12.4,8.3,31.7,15.6,43.6,18.4v-54.8c-35.3-9.9-60.7-22.8-60.7-59.1
				c0-34,20.9-60.2,60.7-67.3V93.2c0-4.5,3.6-8.1,8.1-8.1h20.8c4.5,0,8.1,3.6,8.1,8.1v26.2c17.4,2.3,34.6,8.5,49.3,16.9
				c5.8,3.3,8,10.7,4.7,16.6l-8.9,16.4c-1.1,2-2.9,3.4-5,4s-4.4,0.2-6.3-0.9c-8.4-5.1-22.1-11.3-33.8-14v54.6
				c39,10.9,67.4,23.2,67.4,64.2C316.3,317.3,289.5,337.5,248.9,341.7z"/>
		</g>
	</g>
</g>
</svg>
